<svg width="19" height="19" viewBox="0 0 19 19" fill="none" xmlns="http://www.w3.org/2000/svg">
<g clip-path="url(#clip0_1487_5984)">
<path d="M17.8206 7.9359L10.4786 7.93555C10.1544 7.93555 9.8916 8.1983 9.8916 8.52252V10.868C9.8916 11.1921 10.1544 11.4549 10.4786 11.4549H14.6132C14.1604 12.6299 13.3154 13.6139 12.2373 14.2391L14.0003 17.291C16.8283 15.6554 18.5003 12.7856 18.5003 9.57312C18.5003 9.11571 18.4666 8.78872 18.3991 8.42053C18.3479 8.14079 18.105 7.9359 17.8206 7.9359Z" fill="#167EE6"/>
<path d="M9.5002 14.9778C7.47682 14.9778 5.71043 13.8723 4.76173 12.2363L1.70996 13.9953C3.26299 16.687 6.17231 18.4995 9.5002 18.4995C11.1328 18.4995 12.6732 18.06 14.0002 17.2939V17.2898L12.2372 14.2378C11.4308 14.7056 10.4976 14.9778 9.5002 14.9778Z" fill="#12B347"/>
<path d="M14 17.2944V17.2902L12.237 14.2383C11.4306 14.706 10.4975 14.9782 9.5 14.9782V18.5C11.1326 18.5 12.6731 18.0604 14 17.2944Z" fill="#0F993E"/>
<path d="M4.02174 9.49972C4.02174 8.50237 4.29392 7.56929 4.76154 6.76291L1.70976 5.00391C0.939523 6.32673 0.5 7.86299 0.5 9.49972C0.5 11.1365 0.939523 12.6727 1.70976 13.9955L4.76154 12.2365C4.29392 11.4301 4.02174 10.4971 4.02174 9.49972Z" fill="#FFD500"/>
<path d="M9.5002 4.02174C10.8196 4.02174 12.0316 4.49059 12.9783 5.27046C13.2118 5.46283 13.5513 5.44895 13.7652 5.23502L15.427 3.57318C15.6697 3.33047 15.6524 2.93316 15.3932 2.70823C13.8071 1.33225 11.7434 0.5 9.5002 0.5C6.17231 0.5 3.26299 2.31255 1.70996 5.00418L4.76173 6.76319C5.71043 5.12727 7.47682 4.02174 9.5002 4.02174Z" fill="#FF4B26"/>
<path d="M12.9781 5.27046C13.2116 5.46283 13.5511 5.44895 13.765 5.23502L15.4268 3.57318C15.6695 3.33046 15.6522 2.93316 15.393 2.70823C13.8069 1.33222 11.7432 0.5 9.5 0.5V4.02174C10.8194 4.02174 12.0314 4.49059 12.9781 5.27046Z" fill="#D93F21"/>
</g>
<defs>
<clipPath id="clip0_1487_5984">
<rect width="18" height="18" fill="white" transform="translate(0.5 0.5)"/>
</clipPath>
</defs>
</svg>
